<?xml version="1.0" standalone="no"?>
<!DOCTYPE svg PUBLIC "-//W3C//DTD SVG 20010904//EN"
 "http://www.w3.org/TR/2001/REC-SVG-20010904/DTD/svg10.dtd">
<svg version="1.0" xmlns="http://www.w3.org/2000/svg"
 width="1024.000000pt" height="576.000000pt" viewBox="0 0 1024.000000 576.000000"
 preserveAspectRatio="xMidYMid meet">

<g transform="translate(0.000000,576.000000) scale(0.100000,-0.100000)"
fill="#000000" stroke="none">
<path d="M0 3356 l0 -2405 27 -4 28 -4 -27 -2 c-16 0 -28 -5 -28 -10 0 -15 23
-19 53 -8 15 5 75 7 132 4 69 -4 107 -2 111 5 7 11 85 6 118 -7 14 -6 17 -5
12 4 -6 10 0 11 25 6 19 -4 52 -8 74 -11 22 -2 46 -6 52 -9 7 -2 13 0 13 4 0
5 24 7 54 5 41 -3 55 0 60 11 3 8 16 14 28 14 17 -1 18 -2 6 -6 -10 -2 -18 -9
-18 -15 0 -7 18 -8 53 -4 28 4 71 8 94 9 23 1 40 4 38 7 -2 3 5 11 16 18 11 7
19 8 19 2 0 -5 5 -10 11 -10 5 0 7 5 4 10 -3 6 1 10 9 10 9 0 16 -4 16 -9 0
-5 19 -9 43 -10 23 0 53 -1 67 -2 14 0 29 -6 33 -12 6 -9 10 -9 14 1 2 7 20
12 41 11 21 -1 29 -3 17 -6 -11 -3 -24 -9 -30 -15 -6 -6 46 -8 147 -6 87 2
158 6 158 9 0 15 277 19 320 5 19 -7 58 -11 85 -9 54 2 362 2 408 0 26 -2 27
-4 27 -55 0 -45 5 -59 32 -93 32 -40 55 -48 76 -27 15 15 13 40 17 -262 2
-188 -1 -262 -10 -280 -7 -14 -13 -65 -13 -117 l0 -93 143 0 143 0 5 83 c9
140 14 285 16 465 0 94 4 172 9 172 4 0 25 -49 47 -108 27 -74 40 -125 41
-167 2 -63 21 -223 29 -234 2 -4 0 -25 -5 -47 -4 -21 -10 -67 -14 -101 l-6
-63 137 0 136 0 -7 379 c-6 372 -6 380 13 386 11 3 29 21 41 40 17 27 20 43
14 83 l-6 49 83 6 c46 4 117 7 158 7 l74 0 -6 -67 c-4 -38 -13 -147 -22 -243
-8 -96 -21 -226 -29 -287 -9 -62 -13 -119 -10 -127 3 -7 22 -16 44 -20 47 -7
54 -29 44 -133 l-6 -73 90 0 90 0 3 79 c2 44 7 83 11 86 8 9 224 8 238 0 6 -3
10 -42 10 -86 l0 -79 88 0 87 0 -3 100 c-3 84 -1 100 12 100 8 0 26 5 40 11
35 16 38 66 26 399 -7 188 -7 286 0 288 5 2 19 21 31 42 20 35 26 39 73 44
103 11 591 15 601 4 9 -9 -40 -189 -72 -266 -27 -64 -25 -84 5 -66 16 10 17
-2 16 -165 -1 -178 -1 -180 -42 -265 -3 -5 3 -6 12 -3 9 4 23 10 32 13 13 6
14 -1 10 -42 -3 -27 -8 -82 -11 -121 l-6 -73 539 0 c483 0 540 2 546 16 13 34
17 215 8 329 -10 115 -12 123 -61 220 -28 55 -71 135 -97 177 -42 72 -46 85
-55 174 -5 54 -8 99 -6 100 3 3 482 19 877 29 112 3 211 7 220 9 8 3 118 7
243 11 126 3 234 8 240 10 7 3 192 10 412 16 220 7 414 13 430 14 17 2 61 3
98 4 96 1 75 17 -35 26 -147 12 -143 21 13 30 248 13 279 14 464 20 99 3 189
7 200 7 11 1 67 0 125 -1 76 -2 98 -5 80 -12 -29 -10 519 -3 885 11 132 5 252
9 268 9 l27 1 0 2280 0 2280 -5120 0 -5120 0 0 -2404z"/>
<path d="M345 920 c3 -5 14 -10 23 -10 15 0 15 2 2 10 -20 13 -33 13 -25 0z"/>
</g>
</svg>
